<svg width="24" height="24" fill="none" xmlns="http://www.w3.org/2000/svg"><path d="m9.676 16.381-.401.634.005.003.396-.637zm-5.917-3.743-.407.63.006.004.401-.634zm0-6.285-.4-.634-.01.006.41.628zM9.685 2.62l-.399-.635.4.635zm4.679.01-.405.631.002.002.403-.633zm5.887 3.742.406-.63-.004-.003-.402.633zm0 6.266.46.592-.46-.592zm-5.887 3.743-.375-.65a.829.829 0 0 0-.028.017l.403.633zM5 16.5h.75H5zM21.066 12l-.476-.58.476.58zm-.75 4a.75.75 0 0 0 1.5 0h-1.5zm-8.301.25c-.721 0-1.424-.183-1.943-.506l-.792 1.274c.797.496 1.785.732 2.735.732v-1.5zm-1.938-.503L4.16 12.005l-.802 1.267 5.917 3.743.802-1.268zm-5.91-3.738c-.828-.536-1.304-1.005-1.573-1.409a1.899 1.899 0 0 1-.344-1.1H.75c0 .639.165 1.285.596 1.931.42.632 1.074 1.234 2.006 1.837l.815-1.26zM2.25 9.5c0-.357.085-.711.345-1.102.27-.405.745-.876 1.574-1.416l-.82-1.257c-.93.607-1.583 1.21-2.004 1.843A3.402 3.402 0 0 0 .75 9.5h1.5zm1.909-2.512 5.926-3.733-.8-1.27L3.36 5.72l.8 1.269zm5.926-3.733c.517-.325 1.214-.506 1.942-.505.729.001 1.422.184 1.932.511l.81-1.263c-.797-.51-1.785-.747-2.74-.748-.955-.001-1.943.232-2.743.735l.799 1.27zm3.876.008 5.887 3.742.805-1.266-5.887-3.742-.805 1.266zm5.883 3.74c.89.573 1.338.915 1.59 1.247.21.276.316.593.316 1.25h1.5c0-.843-.143-1.526-.62-2.156-.437-.576-1.113-1.048-1.973-1.602l-.813 1.26zm-.054 5.043c-.837.652-2.275 1.567-3.53 2.334a116.423 116.423 0 0 1-2.092 1.248l-.133.077a4.581 4.581 0 0 1-.045.026l.374.65.374.65.003-.002.01-.005.035-.02a45.214 45.214 0 0 0 .632-.37 118.8 118.8 0 0 0 1.624-.974c1.25-.764 2.756-1.72 3.67-2.43l-.922-1.184zm-5.829 3.702c-.511.326-1.208.502-1.946.502v1.5c.952 0 1.946-.224 2.751-.736l-.805-1.266zm-7.045 3.128c-.647-.431-.905-.815-1.026-1.14-.133-.353-.14-.718-.14-1.236h-1.5c0 .482-.007 1.117.235 1.763.254.676.746 1.292 1.599 1.861l.832-1.248zM5.75 16.5v-3.077h-1.5V16.5h1.5zm12.5-3.066v3.32h1.5v-3.32h-1.5zm0 3.32c0 .378-.006.68-.134.999-.12.302-.384.69-1.032 1.123l.832 1.248c.852-.568 1.339-1.18 1.593-1.813.247-.618.241-1.19.241-1.558h-1.5zm-6.235 4.496c-.83 0-1.705-.311-2.598-.787-.897-.477-1.724-1.069-2.501-1.587l-.832 1.248c.723.482 1.646 1.14 2.628 1.663.985.524 2.117.963 3.303.963v-1.5zm5.069-2.374c-.829.553-1.646 1.142-2.523 1.612-.87.465-1.715.762-2.546.762v1.5c1.183 0 2.282-.42 3.253-.94.963-.514 1.881-1.175 2.648-1.686l-.832-1.248zM21.75 9.5c0 .795-.389 1.288-1.16 1.92l.951 1.16c.868-.71 1.709-1.59 1.709-3.08h-1.5zm-1.16 1.92c-.246.202-.505.397-.8.626l.921 1.184c.272-.21.564-.432.83-.65l-.95-1.16zm-.274.58v4h1.5v-4h-1.5z" fill="#1F1F1F"/></svg>