<svg width="28" height="28" fill="none" xmlns="http://www.w3.org/2000/svg"><path d="M14 25.667V7.377m0 18.29c0-1.497 1.044-2.033 2.333-2.033h6.417c1.75 0 2.916-1.355 2.916-3.387V8.054c0-2.033-1.166-3.387-2.916-3.387h-6.417C15.044 4.667 14 5.88 14 7.377m0 18.29c0-1.497-1.045-2.033-2.334-2.033H5.25c-1.75 0-2.917-1.355-2.917-3.387V8.054c0-2.033 1.167-3.387 2.917-3.387h6.416C12.955 4.667 14 5.88 14 7.377m-8.167 7.79H10.5M5.833 10.5h3.5" stroke="#1F1F1F" stroke-width="1.5" stroke-linecap="round" stroke-linejoin="round"/></svg>