<svg width="24" height="24" fill="none" xmlns="http://www.w3.org/2000/svg"><path d="m6.038 8.924-.746-.084v.013l-.002.012.748.059zm11.867 0 .747-.07-.001-.006V8.84l-.746.084zm.246 2.67h.75v-.034l-.003-.034-.747.069zM19 14l-.653.369.004.007.004.007L19 14zm-.626 4.568.159.733-.159-.733zm-12.546 0 .178-.729-.178.729zM5 14l-.647-.38-.019.033-.016.034L5 14zm.828-2.405-.748-.06-.002.03v.03h.75zm2.946-8.942a.75.75 0 0 0 1.396.547l-1.396-.547zm5.096.547a.75.75 0 0 0 1.397-.547L13.87 3.2zM12 2.25c-1.838 0-3.42.503-4.605 1.643C6.219 5.026 5.533 6.696 5.292 8.84l1.491.167c.216-1.93.811-3.223 1.652-4.033C9.268 4.17 10.438 3.75 12 3.75v-1.5zm6.65 6.59c-.24-2.14-.912-3.81-2.073-4.943C15.405 2.753 13.834 2.25 12 2.25v1.5c1.557 0 2.71.42 3.529 1.22.83.81 1.414 2.102 1.63 4.037l1.491-.167zm.248 2.686-.246-2.671-1.494.138.246 2.67 1.494-.137zM5.65 19.296c.488.12 1.432.196 2.52.245 1.119.052 2.47.078 3.827.079a90.076 90.076 0 0 0 3.878-.074c1.13-.05 2.113-.127 2.658-.245l-.317-1.466c-.403.087-1.26.162-2.407.212-1.125.05-2.47.074-3.81.073a87.024 87.024 0 0 1-3.76-.077c-1.12-.051-1.912-.125-2.233-.204l-.356 1.458zM5.29 8.866l-.21 2.67 1.496.118.21-2.67-1.496-.118zm-.212 2.73-.002.025a3 3 0 0 1-.066.311c-.05.188-.122.41-.204.638-.17.47-.359.891-.453 1.051l1.294.76c.165-.281.39-.806.57-1.3.091-.255.178-.52.243-.762a2.98 2.98 0 0 0 .118-.723h-1.5zm14.575 2.036a9.42 9.42 0 0 1-.47-1.079 8.31 8.31 0 0 1-.212-.638 2.944 2.944 0 0 1-.057-.233c-.012-.066-.013-.091-.013-.086h-1.5c0 .234.064.503.125.723.068.24.158.505.253.76.185.497.413 1.017.568 1.29l1.306-.737zm-15.335.056c-.194.425-.463.958-.66 1.424-.204.48-.393 1.017-.43 1.553-.04.564.088 1.151.537 1.65.427.473 1.069.783 1.885.983l.356-1.458c-.671-.163-.984-.37-1.126-.529-.12-.132-.174-.289-.156-.541.02-.28.128-.632.314-1.072.193-.453.408-.87.644-1.385l-1.364-.624zm14.215 5.614c.811-.175 1.452-.494 1.868-1 .428-.52.531-1.131.479-1.7-.052-.552-.252-1.102-.479-1.592-.23-.496-.51-.978-.756-1.392l-1.29.766c.246.413.491.837.685 1.256.197.425.318.796.346 1.101.027.29-.032.472-.143.608-.124.151-.403.352-1.027.487l.317 1.466zM12.02.44a3.485 3.485 0 0 0-3.246 2.213l1.396.547c.29-.74 1.01-1.26 1.85-1.26V.44zm3.247 2.213A3.485 3.485 0 0 0 12.02.44v1.5c.84 0 1.56.52 1.85 1.26l1.397-.547zM12 22.25c.595 0 1.486-.144 2.255-.596.806-.474 1.495-1.307 1.495-2.594h-1.5c0 .653-.311 1.04-.755 1.3-.48.284-1.09.39-1.495.39v1.5zm-3.75-3.19c0 1.287.689 2.12 1.495 2.594.77.452 1.66.596 2.255.596v-1.5c-.405 0-1.014-.106-1.495-.39-.444-.26-.755-.647-.755-1.3h-1.5z" fill="#1F1F1F"/></svg>