<svg width="24" height="24" fill="none" xmlns="http://www.w3.org/2000/svg"><g clip-path="url(#a)"><path d="M13.5 15H23m-9.5 7.5H23M17 19h6M3 1.25A1.75 1.75 0 0 0 1.25 3v6A1.75 1.75 0 0 0 3 10.75h6A1.75 1.75 0 0 0 10.75 9V3A1.75 1.75 0 0 0 9 1.25H3zm12 0A1.75 1.75 0 0 0 13.25 3v6A1.75 1.75 0 0 0 15 10.75h6A1.75 1.75 0 0 0 22.75 9V3A1.75 1.75 0 0 0 21 1.25h-6zm-12 12A1.75 1.75 0 0 0 1.25 15v6A1.75 1.75 0 0 0 3 22.75h6A1.75 1.75 0 0 0 10.75 21v-6A1.75 1.75 0 0 0 9 13.25H3z" stroke="#1F1F1F" stroke-width="1.5" stroke-linecap="round" stroke-linejoin="round"/></g><defs><clipPath id="a"><path fill="#fff" d="M0 0h24v24H0z"/></clipPath></defs></svg>