<svg width="24" height="24" fill="none" xmlns="http://www.w3.org/2000/svg"><path d="M9.981 7.499H6.25a4.505 4.505 0 0 0-4.5 4.5 4.507 4.507 0 0 0 3.912 4.466M9.982 7.5C10.253 7.483 14 7 19.534 4.35c.442-.21 1.08-.452 1.598-.21.498.231.867.808.867 1.358v13c0 .571-.349 1.118-.866 1.36-.518.24-1.134.035-1.599-.212-4.035-2.147-7.218-2.821-8.785-3.06M9.981 7.5v9.07m.769.019V21c0 1-2.608 1.28-3.75 0-.5-1-.957-3.384-1.338-4.535m5.088.123-.769-.019m-4.319-.104 4.32.104" stroke="#1F1F1F" stroke-width="1.5"/></svg>