<svg width="24" height="24" fill="none" xmlns="http://www.w3.org/2000/svg"><path d="M12.225 8.583c.778 1.129 2.722 3.01 3.889 3.763M18.11 22H5.89C3.667 22 2 20.342 2 18.131V5.974c0-2.21 1.667-3.869 3.889-3.869H18.11C20.333 2.105 22 3.763 22 5.974V18.13C22 20.342 20.333 22 18.111 22zm-4.33-15.298-6.962 6.99c-.24.25-.474.738-.52 1.077l-.289 2.438c-.052.457.098.839.381 1.08.263.223.64.325 1.074.252l2.504-.414c.35-.06.84-.308 1.081-.564l7.008-7.097c.778-.752.98-1.858-.739-3.431-1.71-1.558-2.761-1.084-3.539-.331z" stroke="#1F1F1F" stroke-width="1.5" stroke-miterlimit="10" stroke-linecap="round" stroke-linejoin="round"/></svg>