<svg width="24" height="24" viewBox="0 0 24 24" fill="none" xmlns="http://www.w3.org/2000/svg">
<path d="M19.7722 10.49H19.7678H15.73C14.9348 10.49 14.3774 10.3499 14.0187 10.0325C13.6607 9.71564 13.5 9.22151 13.5 8.51V3.98C13.5 3.2735 13.6607 2.77936 14.0188 2.46125C14.3774 2.1426 14.9347 2 15.73 2H19.77C20.5653 2 21.1226 2.1426 21.4812 2.46125C21.8393 2.77936 22 3.2735 22 3.98V8.52C22 9.22652 21.8393 9.72064 21.4813 10.0375C21.123 10.3546 20.5664 10.4947 19.7722 10.49ZM8.27224 10.49V10.49H8.26778H4.23C3.43481 10.49 2.87742 10.3499 2.51875 10.0325C2.16072 9.71564 2 9.22151 2 8.51V3.98C2 3.2735 2.16072 2.77936 2.51875 2.46125C2.87739 2.1426 3.43475 2 4.23 2H8.27C9.06525 2 9.62261 2.1426 9.98125 2.46125C10.3393 2.77936 10.5 3.2735 10.5 3.98V8.52C10.5 9.22652 10.3393 9.72064 9.98125 10.0375C9.62299 10.3546 9.0664 10.4947 8.27224 10.49ZM14.0187 14.0187C14.3772 13.6603 14.9342 13.5 15.73 13.5H19.77C20.5658 13.5 21.1228 13.6603 21.4813 14.0187C21.8397 14.3772 22 14.9342 22 15.73V19.77C22 20.5658 21.8397 21.1228 21.4813 21.4813C21.1228 21.8397 20.5658 22 19.77 22H15.73C14.9342 22 14.3772 21.8397 14.0187 21.4813C13.6603 21.1228 13.5 20.5658 13.5 19.77V15.73C13.5 14.9342 13.6603 14.3772 14.0187 14.0187ZM2.51875 14.0188C2.87716 13.6603 3.4342 13.5 4.23 13.5H8.27C9.0658 13.5 9.62284 13.6603 9.98125 14.0187C10.3397 14.3772 10.5 14.9342 10.5 15.73V19.77C10.5 20.5658 10.3397 21.1228 9.98125 21.4813C9.62284 21.8397 9.0658 22 8.27 22H4.23C3.4342 22 2.87716 21.8397 2.51875 21.4813C2.16034 21.1228 2 20.5658 2 19.77V15.73C2 14.9342 2.16034 14.3772 2.51875 14.0188Z" stroke="#1F1F1F" stroke-width="1.5" stroke-linecap="round" stroke-linejoin="round"/>
</svg>
