<svg width="24" height="24" fill="none" xmlns="http://www.w3.org/2000/svg"><g clip-path="url(#a)"><path d="M1 8h6m-6 4.5h4M1 17h9m3.68 3.48v-5.95a.5.5 0 0 0-.5-.5H10.5c-1.611 0-2.477-1.955-1.42-3.16l5.77-8.6c1.138-1.288 3.33-.46 3.33 1.26v5.95a.5.5 0 0 0 .5.5h1.84c1.594 0 2.459 1.914 1.453 3.122a.575.575 0 0 0-.058.082l-4.88 8.512a.45.45 0 0 1-.06.082c-1.147 1.237-3.309.356-3.295-1.298z" stroke-width="1.5" stroke-linecap="round"/></g><defs><clipPath id="a"><path fill="#none" d="M0 0h24v24H0z"/></clipPath></defs></svg>