<svg width="28" height="28" fill="none" xmlns="http://www.w3.org/2000/svg"><path clip-rule="evenodd" d="M8.815 7.642c0-2.929 2.313-5.309 5.185-5.309 2.862 0 5.186 2.38 5.186 5.309v.003c-.012 2.864-2.218 5.198-5 5.294a.74.74 0 0 1-.1-.003 1.047 1.047 0 0 0-.188 0 .722.722 0 0 1-.093.003c-2.782-.096-4.99-2.43-4.99-5.297zM14.01 15.75c2.377 0 4.801.507 6.675 1.57 1.684.953 2.649 2.288 2.649 3.725 0 1.437-.965 2.775-2.648 3.732-1.88 1.069-4.307 1.58-6.686 1.58-2.378 0-4.805-.51-6.684-1.579-1.684-.952-2.649-2.288-2.649-3.725 0-1.437.965-2.774 2.648-3.732l.003-.002c1.885-1.062 4.314-1.569 6.692-1.569z" stroke-width="1.5" stroke-linecap="round" stroke-linejoin="round"/></svg>