<svg width="24" height="24" fill="none" xmlns="http://www.w3.org/2000/svg"><path d="M8 14c-.13 0-.26-.03-.38-.08-.13-.05-.23-.12-.33-.21-.18-.191-.29-.442-.29-.713a1 1 0 0 1 .08-.38c.05-.121.12-.232.21-.332.1-.09.2-.16.33-.21.36-.15.81-.07 1.09.21.18.19.29.451.29.712 0 .06-.01.13-.02.2-.01.061-.03.121-.06.181-.02.06-.05.12-.09.18-.03.05-.08.101-.12.151-.19.18-.45.291-.71.291zM12 14c-.13 0-.26-.03-.38-.08-.13-.05-.23-.12-.33-.21-.18-.19-.29-.44-.29-.71 0-.13.03-.26.08-.38s.12-.23.21-.33c.1-.091.2-.161.33-.211.36-.16.81-.07 1.09.21.18.19.29.45.29.71 0 .06-.01.13-.02.2-.01.06-.03.12-.06.18a.76.76 0 0 1-.09.18c-.03.05-.08.1-.12.15-.19.18-.45.291-.71.291zM16 14c-.13 0-.26-.03-.38-.08-.13-.05-.23-.12-.33-.21l-.12-.15a.76.76 0 0 1-.09-.18.637.637 0 0 1-.06-.18c-.01-.07-.02-.14-.02-.2 0-.26.11-.52.29-.71.1-.091.2-.161.33-.211.37-.16.81-.07 1.09.21.18.19.29.45.29.71 0 .06-.01.13-.02.2-.01.06-.03.12-.06.18a.76.76 0 0 1-.09.18c-.03.05-.08.1-.12.15-.19.18-.45.291-.71.291zM8 17a.99.99 0 0 1-.38-.08c-.12-.05-.23-.121-.33-.212a1.062 1.062 0 0 1-.29-.714c0-.131.03-.262.08-.383a.94.94 0 0 1 .21-.332c.37-.372 1.05-.372 1.42 0 .18.191.29.453.29.715 0 .261-.11.523-.29.714-.19.181-.45.292-.71.292zM12 17c-.26 0-.52-.11-.71-.292a1.062 1.062 0 0 1-.29-.714c0-.131.03-.262.08-.383a.94.94 0 0 1 .21-.332c.37-.372 1.05-.372 1.42 0 .09.09.16.201.21.332.05.121.08.252.08.383 0 .261-.11.523-.29.714-.19.181-.45.292-.71.292zM16 17c-.26 0-.52-.11-.71-.29a.933.933 0 0 1-.21-.33A.995.995 0 0 1 15 16c0-.13.03-.26.08-.38.05-.13.12-.24.21-.33.23-.23.58-.34.9-.27.07.01.13.03.19.06.06.02.12.05.18.09.05.03.1.08.15.12.18.19.29.45.29.71 0 .26-.11.52-.29.71-.19.18-.45.29-.71.29zM16.75 2a.75.75 0 0 0-1.5 0h1.5zm-1.5 3a.75.75 0 0 0 1.5 0h-1.5zm-6.5-3a.75.75 0 0 0-1.5 0h1.5zm-1.5 3a.75.75 0 0 0 1.5 0h-1.5zM17.5 20.25h-11v1.5h11v-1.5zm-11 0c-1.586 0-2.75-1.164-2.75-2.75h-1.5c0 2.414 1.836 4.25 4.25 4.25v-1.5zM3.75 17.5v-11h-1.5v11h1.5zm0-11c0-1.586 1.164-2.75 2.75-2.75v-1.5c-2.414 0-4.25 1.836-4.25 4.25h1.5zM6.5 3.75h11v-1.5h-11v1.5zm11 0c1.586 0 2.75 1.164 2.75 2.75h1.5c0-2.414-1.836-4.25-4.25-4.25v1.5zm2.75 2.75v11h1.5v-11h-1.5zm0 11c0 1.586-1.164 2.75-2.75 2.75v1.5c2.414 0 4.25-1.836 4.25-4.25h-1.5zM3 9.925h18v-1.5H3v1.5zM15.25 2v3h1.5V2h-1.5zm-8 0v3h1.5V2h-1.5z" fill="#none"></path></svg>