<svg width="24" height="24" fill="none" xmlns="http://www.w3.org/2000/svg"><path d="M2.487 14.019c.338-.358.862-.519 1.613-.519h15.8c.751 0 1.276.16 1.613.519.337.358.487.915.487 1.711v4.04c0 .796-.15 1.353-.488 1.711-.337.358-.86.519-1.612.519H4.1c-.751 0-1.275-.16-1.612-.519C2.15 21.123 2 20.565 2 19.77v-4.04c0-.796.15-1.353.487-1.711zm0-11.5C2.825 2.16 3.35 2 4.1 2h15.8c.751 0 1.276.16 1.613.519.337.358.487.916.487 1.711v4.04c0 .796-.15 1.353-.488 1.711-.337.358-.86.519-1.612.519H4.1c-.751 0-1.275-.16-1.612-.519C2.15 9.623 2 9.066 2 8.27V4.23c0-.795.15-1.353.487-1.711z" stroke-width="1.5" stroke-linecap="round" stroke-linejoin="round"></path></svg>