<svg width="29" height="28" fill="none" xmlns="http://www.w3.org/2000/svg"><path d="M14.25 0a14 14 0 1 0 0 28 14 14 0 0 0 0-28zm.018 5.25a4.429 4.429 0 1 1-.029 8.858 4.429 4.429 0 0 1 .028-8.858zm4.96 10.597a5.313 5.313 0 0 1-1.917 1.24 9.01 9.01 0 0 1-2.176.488c.11.12.159.181.235.251 1.007 1.012 2.019 2.02 3.023 3.037a1 1 0 0 1 .226 1.178 1.195 1.195 0 0 1-1.114.698 1.093 1.093 0 0 1-.708-.363c-.76-.765-1.535-1.516-2.28-2.296-.216-.227-.318-.184-.512.013-.765.796-1.543 1.563-2.324 2.334a.973.973 0 0 1-1.178.21 1.188 1.188 0 0 1-.687-1.095c.024-.284.156-.547.37-.736.997-.996 1.993-1.993 2.985-2.991.067-.067.128-.137.225-.239-1.357-.141-2.58-.477-3.628-1.295a4.958 4.958 0 0 1-.383-.318c-.458-.439-.504-.943-.142-1.463.31-.444.83-.564 1.373-.31.103.053.2.114.293.182a5.946 5.946 0 0 0 6.591.06c.187-.152.404-.266.637-.332a1.007 1.007 0 0 1 1.153.462c.294.466.291.922-.062 1.285zm-4.967-4.001a2.168 2.168 0 1 0-2.18-2.141 2.155 2.155 0 0 0 2.18 2.14z" fill="#1F1F1F"></path></svg>