<svg width="24" height="24" fill="none" xmlns="http://www.w3.org/2000/svg"><g clip-path="url('#a')"><path d="M6-.001a6 6 0 0 0-6 6v12a6 6 0 0 0 6 6h12.001a6 6 0 0 0 6-6V0h-18z" fill="#B1EC52"></path><path d="M6.556 9.585c-.196-.859.66-1.618 1.768-1.618.998 0 1.998.224 2.379 1.615h1.279v2.123c-1.595-1.31-5.053-.488-5.426-2.12zm13.273-.588h-2.881l-2.742 3.002V6.001h-2.224v1.453a3.727 3.727 0 0 0-.235-.277c-.809-.857-1.974-1.29-3.464-1.29-1.723 0-2.703.77-3.221 1.417-.644.803-.932 1.9-.733 2.792.516 2.312 2.661 2.681 4.237 2.886 1.244.162 2.434.388 2.403 1.497-.033 1.15-1.33 1.433-2.182 1.433-2.218 0-2.293-1.639-2.293-1.639H4.11c.035.616.221 1.604.98 2.452.829.93 2.073 1.4 3.698 1.4 1.246 0 2.381-.406 3.195-1.127v.99h2.224v-2.83l.787-.861 2.247 3.692h2.588L16.56 12.58l3.27-3.584z" fill="#424B52"></path></g><defs><clipPath id="a"><path fill="#fff" d="M0 0h24v24H0z"></path></clipPath></defs></svg>