<svg width="31" height="20" fill="none" xmlns="http://www.w3.org/2000/svg"><path d="M22.05 2.67a.431.431 0 0 1 .753 0l2.195 3.913c.063.112.172.19.299.214l4.485.816c.34.062.473.478.233.725l-3.122 3.21a.431.431 0 0 0-.118.358l.586 4.392a.431.431 0 0 1-.608.449l-4.145-1.914a.432.432 0 0 0-.362 0l-4.145 1.914a.431.431 0 0 1-.608-.45l.586-4.391a.431.431 0 0 0-.119-.358l-3.12-3.21a.431.431 0 0 1 .231-.725l4.486-.816a.431.431 0 0 0 .299-.214l2.195-3.912z" fill="#F3BD00"></path><circle cx="10" cy="10" r="10" fill="#000"></circle><path d="m10 4.375 4.871 8.438H5.13L10 4.374z" fill="#FBFCFA"></path></svg>