<svg width="24" height="24" fill="none" xmlns="http://www.w3.org/2000/svg"><mask id="a" style="mask-type:luminance" maskUnits="userSpaceOnUse" x="0" y="0" width="24" height="24"><path d="M24 0H0v24h24V0z" fill="#fff"/></mask><g mask="url(#a)"><path fill-rule="evenodd" clip-rule="evenodd" d="M16.358 8.06c-.373-.328-.91-.32-1.219-.226.203-.248.673-.45.811-.475.106.04.408.35.408.7zm1.193-1.357c-.246-1.314-3.3-.443-4.837-1.001-.03.383.473.997.954 1.224-.822.713-1.56 2.151-1.709 3.908-.148-1.757-.887-3.195-1.709-3.908.481-.227.985-.841.955-1.224-1.538.558-4.592-.313-4.838 1.001-.051.278.082.702.227.824.026-.088.16-.376.586-.441 2.152-.325 3.948 2.99 2.326 4.331-.024.02-.01.058.023.058h4.86c.034 0 .048-.038.024-.058-1.622-1.34.174-4.656 2.325-4.331.426.065.56.353.587.44.144-.12.278-.545.226-.823zm.523-3.015c-.039-.124 1.223-.128 1.223.662 0 .53-.755.78-.755 1.329 0 .256.275.443.36.443-.194-.881.61-.42.826-.255-.431-1.186.54-1.178.444-1.722-.066-.38-.91-.265-1.216-.457-.541-.341-1.182-1.669-1.605-.341.788.73.33 1.807-.67 1.807 0 0-.006.158.003.17 1.193-.058 1.608-.934 1.39-1.636zM4.161 5.867c.217-.165 1.02-.626.827.255.084 0 .36-.187.36-.443 0-.55-.755-.8-.755-1.33 0-.789 1.261-.785 1.222-.661-.217.702.198 1.578 1.39 1.636.01-.012.004-.17.004-.17-1 0-1.458-1.076-.67-1.807-.423-1.328-1.064 0-1.606.34-.305.193-1.149.078-1.216.458-.095.544.876.536.444 1.722zm3.386 2.192c.374-.327.911-.32 1.22-.225-.202-.248-.673-.45-.811-.476-.106.04-.409.351-.409.701zm4.98-7.35L11.944 0l-.582.71.582.746.582-.747zm3.32 2.145-.413-.504-.414.504.414.493.413-.493zm3.356 14.57-.525-.555-.524.555.524.486.525-.486zM8.87 2.854l-.414-.504-.413.504.413.493.414-.493zm-1.185 2.47h1.543c1.297 0 1.88-.796 2.057-1.486h1.32c.176.69.76 1.486 2.057 1.486h1.543s.27-.366.338-.547c.243-.653-.068-.957-.522-.957l-.588.532-.587-.532c-.454 0-.765.304-.522.957.031.083.106.206.176.313-.547-.075-1.246-.45-1.4-1.252 0 0 .405-.643.507-.903.364-.935-.101-1.318-.783-1.318l-.88 1.034-.879-1.034c-.681 0-1.147.383-.782 1.318.101.26.506.903.506.903-.153.803-.852 1.177-1.4 1.253.071-.108.145-.23.176-.314.244-.653-.067-.957-.522-.957l-.587.532-.587-.532c-.455 0-.765.304-.522.957.067.181.338.547.338.547zm15.951 4.783c-.297.15-2.044.97-4.283.667.023-.107.043-.215.06-.323 1.489-.178 2.7-.43 3.471-.86.88-.49 1.264-1.658.82-2.527-.011-.022-.043-.026-.059-.008-.243.28-1.773 1.944-4.183 2.461a4.402 4.402 0 0 0-.034-.373c1.17-.664 2.313-1.428 2.857-2.128.823-1.057.747-2.406-.035-3.094a.037.037 0 0 0-.056.008c-.247.408-2.565 4.155-5.11 5.773l-.094.058a.12.12 0 0 0-.02.196c.294.265.477.635.477 1.046 0 .715-.551 1.309-1.279 1.438-.37.071-.904.05-1.417-.119-.023-.007-.046.008-.046.031v2.263c0 .036.055.045.068.01.312-.826 1.245-1.001 1.653-1.001.147.882.41 1.614.75 2.007.555.64 1.462.63 1.855.188a.032.032 0 0 0-.009-.05c-.231-.132-1.552-.943-1.817-2.272a2.62 2.62 0 0 0 .304-.125c.427.706 1.047 1.334 1.547 1.575.84.402 1.608.206 1.949-.383.012-.02-.003-.047-.028-.05-.52-.04-2.113-.497-2.791-1.61.077-.071.153-.146.224-.225.71.54 1.714 1.018 2.433 1.116.84.114 1.793-.154 1.816-1.132 0-.02-.017-.035-.037-.034-.3.018-2.279.104-3.69-.706.05-.093.096-.188.138-.284 0 0 2.13.504 3.14.337 1.004-.166 1.592-.914 1.478-1.844-.003-.023-.03-.037-.052-.026zM4.82 11.64c.042.097.088.191.137.284-1.41.81-3.388.724-3.689.706-.02-.001-.038.015-.038.035.024.977.976 1.246 1.817 1.131.718-.097 1.722-.575 2.432-1.116.072.08.147.154.225.225-.679 1.113-2.272 1.57-2.791 1.611-.025.002-.04.028-.028.049.34.59 1.11.785 1.949.383.5-.24 1.12-.87 1.546-1.575.098.048.2.09.304.125-.264 1.33-1.585 2.14-1.816 2.273a.032.032 0 0 0-.009.05c.393.442 1.3.45 1.855-.189.34-.393.602-1.125.75-2.007.408 0 1.34.175 1.653 1.001.013.035.068.026.068-.01v-2.263c0-.023-.024-.038-.047-.031-.513.17-1.047.19-1.416.119-.728-.13-1.28-.723-1.28-1.438 0-.41.184-.781.477-1.047a.12.12 0 0 0-.019-.195 4.307 4.307 0 0 1-.094-.058c-2.544-1.617-4.86-5.361-5.11-5.772a.038.038 0 0 0-.057-.008c-.782.688-.858 2.036-.035 3.093.544.7 1.687 1.464 2.857 2.128a4.45 4.45 0 0 0-.034.373C2.02 9.001.491 7.34.245 7.057c-.016-.019-.049-.015-.06.007-.443.87-.059 2.038.82 2.527.772.43 1.983.682 3.472.86.016.108.036.216.06.322-2.237.303-3.983-.514-4.283-.666-.023-.011-.05.003-.052.027-.113.93.474 1.677 1.477 1.843 1.01.167 3.14-.337 3.14-.337zm13.858 6.985-.776-.61c-.31.184-.538.477-.626.82-.467.065-1.74-.217-1.617-.405 1.396-1.963.328-3.131-.955-3.066v1.318c0 .423-.37.766-.824.766h-.886c-.636 0-1.05.64-1.05.64s-.413-.64-1.048-.64h-.886c-.456 0-.824-.343-.824-.766v-1.318c-1.283-.065-2.352 1.103-.956 3.066.123.186-1.186.483-1.8.408a.908.908 0 0 0-.656-.274.938.938 0 0 0-.325.059s-2.413-2.284-2.457-2.307l.02-.046c.137-.257-.073-.537-.206-.517.155-.185.162-.996-.695-1.184.025.163.038.495.038.495s-.662-.357-.994-.049c-.291.346.113.973.113.973s-.338.008-.505-.006c.245.83 1.068.77 1.246.607-.012.132.286.32.538.169l.11-.054c.02.026 2.37 2.246 2.37 2.246a.772.772 0 0 0-.124.567.85.85 0 0 0 .677.669c.246.05.477.001.663-.107l.622.577c.055.05.13.082.213.076.153-.01.266-.134.255-.275a.244.244 0 0 0-.082-.16c-.01-.011-.634-.59-.634-.59.514-.36 1.473-.615 2.268-.615.14 0 .206-.118.158-.234-.36-.867.414-1.495 1.216-.983.35.222.704.661.972 1.394-1.315.318-2.966 1.195-3.3 2.153-.129.37.296.874.812.975a.035.035 0 0 0 .042-.027c.27-1.43 1.806-2.495 2.607-2.676l.067.18c-.871.413-1.716 1.282-1.958 2.315-.11.473.417.9.853 1.016.022.006.043-.01.044-.03.083-1.307.66-2.417 1.177-2.921.014.098.025.197.032.297 0 0-.53 1.474-.53 2.55 0 .5.745.85.854.899.138-.049.881-.398.881-.899 0-1.076-.529-2.55-.529-2.55.007-.1.018-.199.032-.297.517.504 1.094 1.613 1.176 2.92a.035.035 0 0 0 .045.03c.436-.116.963-.542.853-1.015-.242-1.033-1.086-1.902-1.958-2.314l.067-.18c.8.18 2.338 1.245 2.607 2.675.002.01.008.017.015.022a.035.035 0 0 0 .027.005c.516-.101.941-.605.812-.975-.333-.958-1.985-1.835-3.3-2.153.268-.733.623-1.172.973-1.394.8-.512 1.575.116 1.215.983-.048.116.017.234.157.234.9 0 2.009.325 2.447.761.28.42.799.69 1.383.632.664-.065 1.206-.564 1.28-1.18.066-.541-.213-1.026-.659-1.29l-.777.61zm-5.723-3.937c.277-.103.71-.02.696.38-.004.09.123.09.132-.002.083-.598-.32-.77-.744-.7-.052-.206-.095-.386-.144-.564-.04-.144-.054-.415.113-.415.09 0 .054.252.046.36-.008.096.026.153.104.156.048.002.108-.06.144-.1.242-.274.298-.698.014-.902-.237-.172-.83-.044-.994.2-.025-.092-.143-.244-.2-.31-.054-.064-.069-.109.008-.165.035-.028.144-.136.144-.247 0-.066-.051-.187-.213-.187-.128 0-.27.089-.27.286 0 .044.01.09.039.141a1.44 1.44 0 0 0-.413.02l1.558 4.276c.446-.22.773-.569.773-.943 0-.319-.47-.213-.698.036-.073-.404-.138-.778-.21-1.15-.02-.102.033-.14.115-.17zm-2.203-2.904.328.909c-.28.067-.731.271-.731.542 0 .36.637.595 1.006.566a.245.245 0 0 0 .06.223c-.134 0-.386.062-.47.151-.195-.182-.5-.248-.646-.137-.146.111-.15.3.002.514.106.149.146.295.027.466.444 0 .28-.578.455-.578a.732.732 0 0 0 .041.386c.034.095.034.163-.024.255-.143.23-.366.756-.336 1.232-.145-.001-.22-.037-.168-.236.02-.074-.027-.127-.087-.036-.067.101-.1.273-.1.347 0 .423.505.509.698.419.558.54 1.653.396 2.02.215l-1.929-5.29c-.039-.1-.18-.052-.146.052zm-.067 4.357c-.04-.218.263-.607.649-.983-.082.245-.031.667.13.812-.28 0-.612.053-.779.17z" fill="#AAB0A7"/></g></svg>