<svg width="232" height="40" fill="none" xmlns="http://www.w3.org/2000/svg"><path d="M44.063 26.405H38V5.595h4.686v15.162L52.62 5.595h6.065v20.81h-4.688V11.243l-9.934 15.162zM66.716 26.405h-4.37V5.595h4.37v8.324h11.946V5.595h4.37v20.81h-4.37v-8.502H66.716v8.502zM102.191 7.158c2.223.074 4.034.356 5.627 1.07 1.614.694 2.84 1.655 3.678 2.884.86 1.209 1.289 2.77 1.289 4.277 0 1.506-.429 3.188-1.289 4.416-.838 1.21-2.064 2.17-3.678 2.884-1.593.694-3.468 1.04-5.627 1.04h-.786V27h-4.401v-3.27h-.786c-2.159 0-4.045-.347-5.659-1.04-1.592-.714-2.818-1.676-3.678-2.885-.838-1.228-1.257-2.91-1.257-4.416 0-1.506.419-3.068 1.257-4.277.86-1.23 2.086-2.19 3.678-2.884 1.614-.714 3.351-.996 5.66-1.07l.785-.02V5h4.401v2.139l.786.019zm-5.187 13.004v-9.437h-.975c-1.907 0-3.395.416-4.464 1.249-1.047.813-1.571 2.087-1.571 3.415 0 1.328.523 2.722 1.571 3.554 1.07.813 2.557 1.22 4.465 1.22h.974zm5.376 0c1.907 0 3.384-.406 4.432-1.219 1.069-.832 1.604-2.226 1.604-3.554 0-1.328-.535-2.602-1.604-3.415-1.048-.833-2.525-1.249-4.432-1.249h-.975v9.437h.975zM126.528 26.762c-2.222 0-4.265-.446-6.13-1.338-1.845-.911-3.312-2.18-4.401-3.805-1.09-1.645-1.635-3.518-1.635-5.619 0-2.1.545-3.964 1.635-5.59 1.089-1.644 2.556-2.913 4.401-3.805 1.865-.911 3.908-1.367 6.13-1.367 2.221 0 4.254.456 6.099 1.367 1.865.892 3.342 2.16 4.432 3.806 1.09 1.625 1.635 3.488 1.635 5.589 0 2.1-.545 3.974-1.635 5.619-1.09 1.625-2.567 2.894-4.432 3.805-1.845.892-3.878 1.338-6.099 1.338zm0-3.776c1.425 0 2.724-.287 3.898-.862 1.195-.594 2.138-1.417 2.829-2.467.692-1.07 1.038-2.29 1.038-3.657 0-1.368-.346-2.577-1.038-3.627-.691-1.07-1.634-1.893-2.829-2.468-1.174-.594-2.473-.891-3.898-.891-1.446 0-2.767.297-3.961.891a6.848 6.848 0 0 0-2.798 2.468c-.692 1.05-1.037 2.26-1.037 3.627 0 1.368.345 2.587 1.037 3.657.692 1.05 1.624 1.873 2.798 2.467 1.194.575 2.515.863 3.961.863zM155.641 5.595h5.117l-10.154 18.283a5.028 5.028 0 0 1-1.792 1.844c-.734.455-1.708.683-2.924.683h-4.087V22.69h3.395c.441 0 .807-.06 1.101-.178.293-.12.545-.337.754-.654l.566-.773-9.211-15.49h5.54l6.036 10.465 5.659-10.464zM162.28 26.405V5.595h11.537c1.488 0 2.809.287 3.961.862 1.153.575 2.044 1.387 2.672 2.438.65 1.05.975 2.565.975 3.932 0 1.388-.325 2.912-.975 3.963-.628 1.05-1.519 1.863-2.672 2.437-1.152.575-2.473.863-3.961.863h-7.167v6.315h-4.37zm11.349-10.15c1.048 0 1.875-.278 2.483-.833.629-.575.943-1.644.943-2.595 0-.931-.314-1.98-.943-2.535-.608-.575-1.435-.862-2.483-.862h-6.979v6.824h6.979zM195.238 26.762c-2.221 0-4.265-.446-6.13-1.338-1.844-.911-3.311-2.18-4.401-3.805-1.09-1.645-1.635-3.518-1.635-5.619 0-2.1.545-3.964 1.635-5.59 1.09-1.644 2.557-2.913 4.401-3.805 1.865-.911 3.909-1.367 6.13-1.367 2.222 0 4.255.456 6.099 1.367 1.865.892 3.343 2.16 4.433 3.806 1.089 1.625 1.634 3.488 1.634 5.589 0 2.1-.545 3.974-1.634 5.619-1.09 1.625-2.568 2.894-4.433 3.805-1.844.892-3.877 1.338-6.099 1.338zm0-3.776c1.425 0 2.725-.287 3.898-.862 1.195-.594 2.138-1.417 2.83-2.467.691-1.07 1.037-2.29 1.037-3.657 0-1.368-.346-2.577-1.037-3.627-.692-1.07-1.635-1.893-2.83-2.468-1.173-.594-2.473-.891-3.898-.891-1.446 0-2.766.297-3.961.891a6.855 6.855 0 0 0-2.798 2.468c-.691 1.05-1.037 2.26-1.037 3.627 0 1.368.346 2.587 1.037 3.657.692 1.05 1.625 1.873 2.798 2.467 1.195.575 2.515.863 3.961.863zM214.391 26.405h-4.37V5.595h4.37v8.877l8.896-8.877h5.313L218.335 15.85 229 26.405h-5.439l-9.17-9.336v9.336zM41.427 37.74c-.63 0-1.205-.13-1.726-.392a3.275 3.275 0 0 1-1.247-1.106A2.909 2.909 0 0 1 38 34.65c0-.587.151-1.114.454-1.582a3.15 3.15 0 0 1 1.247-1.106 3.698 3.698 0 0 1 1.726-.404c.63 0 1.206.135 1.727.404.52.262.932.63 1.234 1.106.311.468.467.995.467 1.582a2.85 2.85 0 0 1-.466 1.593 3.177 3.177 0 0 1-1.235 1.106 3.792 3.792 0 0 1-1.727.392zm0-.891c.437 0 .84-.091 1.21-.274.37-.182.664-.44.882-.773.218-.34.328-.725.328-1.153 0-.428-.11-.809-.328-1.142a2.162 2.162 0 0 0-.882-.785 2.696 2.696 0 0 0-1.21-.273c-.436 0-.84.09-1.21.273-.369.182-.663.444-.881.785a2.035 2.035 0 0 0-.328 1.142c0 .428.11.812.328 1.153.218.333.512.59.882.773.37.182.773.274 1.21.274zM48.884 37.74c-.621 0-1.18-.126-1.676-.38a2.885 2.885 0 0 1-1.171-1.082c-.286-.476-.429-1.027-.429-1.653v-.345c0-1.03.151-1.86.454-2.485.302-.627.798-1.106 1.487-1.44.31-.15.634-.265.97-.344.344-.08.773-.139 1.285-.179.361-.031.618-.11.769-.237.151-.127.227-.325.227-.595h.932c-.008.523-.155.924-.44 1.201-.287.278-.728.44-1.324.488-.454.031-.828.075-1.122.13a3.082 3.082 0 0 0-.818.274c-.807.396-1.273 1.039-1.4 1.927h.076c.286-.326.63-.56 1.034-.702.403-.15.827-.226 1.272-.226.572 0 1.097.123 1.575.369.488.245.87.582 1.147 1.01.286.42.428.892.428 1.416 0 .547-.142 1.038-.428 1.474-.285.428-.68.765-1.184 1.01a3.692 3.692 0 0 1-1.664.37zm0-.891c.412 0 .79-.084 1.134-.25a2.04 2.04 0 0 0 .832-.69c.202-.301.302-.642.302-1.023 0-.38-.1-.717-.302-1.01a2.004 2.004 0 0 0-.832-.702 2.571 2.571 0 0 0-1.134-.25c-.411 0-.794.084-1.146.25a2.02 2.02 0 0 0-.82.702c-.201.293-.302.63-.302 1.01 0 .381.101.722.303 1.023.201.294.474.523.819.69.352.166.735.25 1.146.25zM53.297 40v-8.324h.883l.126.82h.075c.613-.626 1.378-.94 2.294-.94.57 0 1.104.136 1.6.405.495.262.89.63 1.184 1.106.294.468.441.995.441 1.582a2.97 2.97 0 0 1-.44 1.593 3.152 3.152 0 0 1-1.185 1.106 3.377 3.377 0 0 1-1.6.392c-.916 0-1.68-.313-2.294-.939h-.075V40h-1.008zm3.302-3.151a2.36 2.36 0 0 0 1.121-.274c.353-.182.635-.44.845-.773.218-.34.327-.725.327-1.153 0-.428-.109-.809-.327-1.142a2.115 2.115 0 0 0-.845-.785 2.36 2.36 0 0 0-1.121-.273c-.403 0-.781.09-1.134.273a2.23 2.23 0 0 0-.844.785c-.21.333-.315.714-.315 1.142 0 .428.105.812.315 1.153.218.333.5.59.844.773.353.182.73.274 1.134.274zM63.22 37.74c-.807 0-1.424-.166-1.853-.499-.428-.34-.642-.793-.642-1.356 0-.586.21-1.05.63-1.39.428-.35 1.062-.524 1.902-.524h2.331v-.155c0-.444-.16-.78-.478-1.01-.311-.238-.748-.357-1.31-.357-1.051 0-1.664.317-1.84.951H60.95c.042-.523.303-.96.782-1.308.487-.357 1.176-.535 2.066-.535.865 0 1.546.202 2.041.606.504.397.756.948.756 1.653v3.806h-.882l-.138-.702H65.5c-.201.214-.504.404-.907.57a3.57 3.57 0 0 1-1.374.25zm.025-.891c.739 0 1.314-.155 1.726-.464.412-.317.617-.753.617-1.308v-.214h-2.444c-.462 0-.815.095-1.059.285a.884.884 0 0 0-.352.737c0 .286.126.52.378.702.26.174.638.262 1.134.262zM70.447 37.74c-.571 0-1.075-.087-1.512-.261-.428-.182-.76-.42-.996-.714a1.606 1.606 0 0 1-.34-.987h1.008c0 .19.076.369.227.535.151.16.366.29.643.393.277.095.6.143.97.143.605 0 1.042-.084 1.31-.25.278-.174.416-.392.416-.654 0-.294-.147-.52-.44-.678-.286-.159-.706-.238-1.26-.238h-.694v-.832h.693c.496 0 .878-.084 1.147-.25.269-.174.403-.396.403-.666 0-.238-.134-.436-.403-.594-.269-.16-.66-.238-1.172-.238-.53 0-.945.095-1.247.285-.303.19-.454.432-.454.725h-1.008c0-.356.113-.677.34-.963.227-.293.546-.523.958-.69a3.74 3.74 0 0 1 1.411-.25c.538 0 1 .076 1.386.227.386.15.68.356.882.618.21.254.315.54.315.856 0 .341-.117.63-.353.868-.227.23-.491.385-.794.464v.06c.362.063.664.206.908.428.252.222.378.515.378.88 0 .515-.231.943-.693 1.284-.462.333-1.138.5-2.029.5zM77.295 37.74c-.63 0-1.206-.13-1.726-.392a3.275 3.275 0 0 1-1.248-1.106 2.909 2.909 0 0 1-.453-1.593c0-.587.15-1.114.453-1.582a3.15 3.15 0 0 1 1.248-1.106 3.699 3.699 0 0 1 1.726-.404c.63 0 1.206.135 1.726.404.521.262.933.63 1.235 1.106.311.468.466.995.466 1.582a2.85 2.85 0 0 1-.466 1.593 3.178 3.178 0 0 1-1.235 1.106 3.791 3.791 0 0 1-1.726.392zm0-.891c.437 0 .84-.091 1.21-.274.37-.182.663-.44.882-.773.218-.34.327-.725.327-1.153 0-.428-.109-.809-.327-1.142a2.163 2.163 0 0 0-.882-.785 2.696 2.696 0 0 0-1.21-.273c-.437 0-.84.09-1.21.273-.37.182-.663.444-.882.785a2.035 2.035 0 0 0-.327 1.142c0 .428.109.812.327 1.153.219.333.513.59.882.773.37.182.773.274 1.21.274zM81.854 37.622v-5.946h3.843c.538 0 .974.158 1.31.475.345.31.517.71.517 1.201 0 .294-.084.551-.252.773-.16.222-.344.377-.554.464v.06c.252.079.47.23.655.451.185.222.277.496.277.821 0 .5-.176.908-.53 1.225-.344.317-.776.476-1.297.476h-3.97zm3.717-3.401c.277 0 .504-.08.68-.238a.793.793 0 0 0 .265-.619.764.764 0 0 0-.277-.606.935.935 0 0 0-.668-.25h-2.71v1.712h2.71zm.126 2.568c.277 0 .504-.08.68-.238a.807.807 0 0 0 .265-.63c0-.27-.092-.48-.277-.63a.962.962 0 0 0-.668-.238h-2.835v1.736h2.835zM91.025 37.74c-.806 0-1.424-.166-1.852-.499-.429-.34-.643-.793-.643-1.356 0-.586.21-1.05.63-1.39.429-.35 1.063-.524 1.903-.524h2.331v-.155c0-.444-.16-.78-.479-1.01-.31-.238-.747-.357-1.31-.357-1.05 0-1.664.317-1.84.951h-1.008c.042-.523.302-.96.781-1.308.487-.357 1.176-.535 2.067-.535.865 0 1.545.202 2.041.606.504.397.756.948.756 1.653v3.806h-.882l-.139-.702h-.075c-.202.214-.504.404-.907.57-.404.167-.862.25-1.374.25zm.025-.891c.74 0 1.315-.155 1.727-.464.411-.317.617-.753.617-1.308v-.214h-2.445c-.462 0-.814.095-1.058.285a.884.884 0 0 0-.353.737c0 .286.126.52.378.702.26.174.639.262 1.134.262zM98.399 37.622h-1.008v-5.054h-2.432v-.892h5.872v.892h-2.432v5.054zM104.422 37.74a3.521 3.521 0 0 1-1.664-.404 3.327 3.327 0 0 1-1.222-1.106 2.89 2.89 0 0 1-.453-1.581c0-.587.151-1.114.453-1.582a3.151 3.151 0 0 1 1.248-1.106 3.775 3.775 0 0 1 1.739-.404c.621 0 1.18.123 1.675.368.505.246.899.587 1.185 1.023.286.436.428.928.428 1.475 0 .285-.021.507-.063.666h-5.657c.092.515.357.94.793 1.272.446.325.958.488 1.538.488.529 0 .957-.08 1.285-.238.336-.167.605-.385.806-.654h1.084a3.273 3.273 0 0 1-1.184 1.296c-.521.325-1.185.487-1.991.487zm2.381-3.543a1.493 1.493 0 0 0-.34-.88 2 2 0 0 0-.819-.63 2.594 2.594 0 0 0-1.121-.238c-.639 0-1.181.162-1.626.487a2.003 2.003 0 0 0-.806 1.26h4.712zM107.941 37.681v-.951h.403c.311 0 .542-.064.693-.19.159-.127.256-.337.29-.63l.428-4.234h4.725v5.946h-1.008v-5.054h-2.797l-.365 3.365c-.068.602-.252 1.047-.555 1.332-.302.277-.769.416-1.399.416h-.415zM116.06 37.622v-5.946h1.008v1.997h2.369c.697 0 1.252.187 1.663.56.42.364.63.836.63 1.415 0 .578-.21 1.054-.63 1.427-.411.364-.966.547-1.663.547h-3.377zm3.352-.892c.412 0 .731-.1.958-.298a.976.976 0 0 0 .352-.784.976.976 0 0 0-.352-.785c-.227-.199-.546-.298-.958-.298h-2.344v2.165h2.344zM123.814 37.622h-1.009v-5.946h1.009v2.52h3.855v-2.52h1.008v5.946h-1.008v-2.533h-3.855v2.533zM130.252 37.622v-5.946h1.008v1.997h2.117c.697 0 1.252.187 1.663.56.42.364.63.836.63 1.415 0 .578-.21 1.054-.63 1.427-.411.364-.966.547-1.663.547h-3.125zm7.498 0h-1.008v-5.946h1.008v5.946zm-4.398-.892c.412 0 .731-.1.958-.298a.976.976 0 0 0 .352-.784.976.976 0 0 0-.352-.785c-.227-.199-.546-.298-.958-.298h-2.092v2.165h2.092zM140.999 37.622h-1.676v-5.946h1.008v4.852h.277l2.911-4.852h1.676v5.946h-1.008V32.77h-.277l-2.911 4.852zm1.285-6.957c-.537 0-.991-.135-1.361-.404a1.437 1.437 0 0 1-.604-1.083h.856a.833.833 0 0 0 .353.595c.202.135.454.202.756.202.303 0 .555-.067.756-.202a.827.827 0 0 0 .353-.595h.857a1.438 1.438 0 0 1-.605 1.082c-.369.27-.823.405-1.361.405zM150.61 37.622h-1.008v-5.946h1.802l2.104 4.816h.278l2.104-4.816h1.802v5.946h-1.008v-4.757h-.278l-2.079 4.757h-1.361l-2.079-4.757h-.277v4.757zM161.444 37.74c-.807 0-1.424-.166-1.853-.499-.428-.34-.642-.793-.642-1.356 0-.586.21-1.05.63-1.39.428-.35 1.062-.524 1.902-.524h2.332v-.155c0-.444-.16-.78-.479-1.01-.311-.238-.748-.357-1.311-.357-1.05 0-1.663.317-1.839.951h-1.008c.042-.523.302-.96.781-1.308.487-.357 1.176-.535 2.066-.535.866 0 1.546.202 2.042.606.504.397.756.948.756 1.653v3.806h-.882l-.139-.702h-.076c-.201.214-.504.404-.907.57a3.57 3.57 0 0 1-1.373.25zm.025-.891c.739 0 1.315-.155 1.726-.464.412-.317.618-.753.618-1.308v-.214h-2.445c-.462 0-.815.095-1.058.285a.882.882 0 0 0-.353.737c0 .286.126.52.378.702.26.174.638.262 1.134.262zM166.391 40v-8.324h.882l.126.82h.075c.613-.626 1.378-.94 2.293-.94.572 0 1.105.136 1.601.405.495.262.89.63 1.184 1.106.294.468.441.995.441 1.582a2.97 2.97 0 0 1-.441 1.593 3.155 3.155 0 0 1-1.184 1.106 3.379 3.379 0 0 1-1.601.392c-.915 0-1.68-.313-2.293-.939h-.075V40h-1.008zm3.301-3.151c.403 0 .777-.091 1.121-.274a2.144 2.144 0 0 0 1.172-1.926c0-.428-.109-.809-.327-1.142a2.116 2.116 0 0 0-.845-.785 2.357 2.357 0 0 0-1.121-.273c-.403 0-.781.09-1.134.273a2.223 2.223 0 0 0-.844.785c-.21.333-.315.714-.315 1.142 0 .428.105.812.315 1.153.218.333.499.59.844.773.353.182.731.274 1.134.274zM175.141 37.622h-1.008v-5.946h1.008v2.735l3.162-2.735h1.424l-3.452 2.913 3.591 3.033h-1.424l-3.301-2.854v2.854z" fill="#1F1F1F"/><path d="M183.136 37.74a3.517 3.517 0 0 1-1.663-.404 3.32 3.32 0 0 1-1.222-1.106 2.883 2.883 0 0 1-.454-1.581c0-.587.151-1.114.454-1.582.31-.476.726-.844 1.247-1.106a3.775 3.775 0 0 1 1.739-.404c.622 0 1.18.123 1.676.368.504.246.899.587 1.184 1.023.286.436.429.928.429 1.475 0 .285-.021.507-.063.666h-5.658c.092.515.357.94.794 1.272.445.325.957.488 1.537.488.529 0 .958-.08 1.285-.238.336-.167.605-.385.807-.654h1.083a3.266 3.266 0 0 1-1.184 1.296c-.521.325-1.184.487-1.991.487zm2.382-3.543a1.501 1.501 0 0 0-.341-.88 1.987 1.987 0 0 0-.819-.63 2.591 2.591 0 0 0-1.121-.238c-.639 0-1.18.162-1.626.487a2.012 2.012 0 0 0-.806 1.26h4.713zM190.222 37.622h-1.008v-5.054h-2.432v-.892h5.872v.892h-2.432v5.054zM194.54 37.622h-1.008v-5.946h5.859v5.946h-1.008v-5.054h-3.843v5.054zM200.084 37.681v-.951h.403c.311 0 .542-.064.693-.19.16-.127.256-.337.29-.63l.429-4.234h4.725v5.946h-1.008v-5.054h-2.798l-.365 3.365c-.067.602-.252 1.047-.554 1.332-.303.277-.769.416-1.399.416h-.416zM210.837 37.74c-.764 0-1.428-.182-1.991-.547a2.862 2.862 0 0 1-1.146-1.474h1.058c.16.365.42.646.781.844.37.19.802.286 1.298.286.597 0 1.122-.163 1.575-.488.462-.325.739-.753.832-1.284h-3.276v-.868h3.276c-.093-.532-.37-.956-.832-1.273a2.632 2.632 0 0 0-1.575-.487c-.496 0-.928.095-1.298.285a1.654 1.654 0 0 0-.781.785H207.7c.21-.587.592-1.058 1.146-1.415.563-.365 1.227-.547 1.991-.547.63 0 1.206.135 1.726.404.521.262.933.63 1.235 1.106.311.468.466.995.466 1.582a2.85 2.85 0 0 1-.466 1.593 3.173 3.173 0 0 1-1.235 1.106 3.788 3.788 0 0 1-1.726.392zM217.08 37.622h-1.676v-5.946h1.008v4.852h.277l2.911-4.852h1.676v5.946h-1.008V32.77h-.277l-2.911 4.852zm1.285-6.957c-.537 0-.991-.135-1.361-.404a1.437 1.437 0 0 1-.604-1.083h.856a.833.833 0 0 0 .353.595c.202.135.454.202.756.202.303 0 .555-.067.756-.202a.827.827 0 0 0 .353-.595h.857a1.438 1.438 0 0 1-.605 1.082c-.369.27-.823.405-1.361.405zM225.837 37.74a3.79 3.79 0 0 1-1.726-.392 3.276 3.276 0 0 1-1.248-1.106 2.911 2.911 0 0 1-.453-1.593c0-.587.151-1.114.453-1.582a3.151 3.151 0 0 1 1.248-1.106 3.698 3.698 0 0 1 1.726-.404c.765 0 1.424.186 1.979.559.562.364.957.852 1.184 1.462h-1.058a1.803 1.803 0 0 0-.819-.832c-.362-.198-.79-.297-1.286-.297-.437 0-.84.09-1.209.273-.37.182-.664.444-.882.785a2.03 2.03 0 0 0-.328 1.142c0 .428.109.812.328 1.153.218.333.512.59.882.773a2.69 2.69 0 0 0 1.209.274c.504 0 .937-.1 1.298-.298.361-.206.63-.503.807-.892H229a2.979 2.979 0 0 1-1.172 1.523c-.554.372-1.218.558-1.991.558z" fill="#1F1F1F"/><path d="M13.92 27.084H6.96c-3.844 0-6.96-3.663-6.96-8.18V4.588h6.96c3.843 0 6.96 3.662 6.96 8.18v14.316zM30.09 24.124c0 7.847-6.233 14.208-13.92 14.208v-26.64c0-3.924 3.116-7.104 6.96-7.104h6.96v19.536z" fill="#24A600"/></svg>