<svg width="28" height="28" fill="none" xmlns="http://www.w3.org/2000/svg"><path d="M20.61 9.79c-.123-.477-.478-1.02-.924-1.487-.547-.573-1.247-1.039-1.86-1.176a20.363 20.363 0 0 0-7.653 0c-1.114.248-2.51 1.591-2.781 2.663a14.636 14.636 0 0 0 0 6.283c.22.869 1.172 1.909 2.116 2.409.209.115.433.2.665.256a.103.103 0 0 1 .086.102v3.054a.168.168 0 0 0 .29.116l1.453-1.487 1.362-1.4a.1.1 0 0 1 .076-.032c1.47.04 2.94-.079 4.385-.353 1.114-.248 2.509-1.591 2.783-2.665.455-2.07.455-4.213.001-6.283zm-2.744 6.437a2.355 2.355 0 0 1-1.011 1.114c-.141.061-.288.108-.438.14-.17-.053-.332-.086-.477-.15a12.024 12.024 0 0 1-3.317-1.957 8.745 8.745 0 0 1-.832-.816A10.756 10.756 0 0 1 10.2 12.13c-.204-.414-.376-.845-.55-1.273-.16-.39.076-.795.318-1.085.236-.27.527-.487.854-.636a.548.548 0 0 1 .686.16 8.96 8.96 0 0 1 1.06 1.483.708.708 0 0 1-.198.955c-.08.054-.16.12-.228.18a.73.73 0 0 0-.171.183.497.497 0 0 0-.039.442c.307.845.774 1.548 1.47 2.043.236.167.49.307.758.417.174.095.37.142.57.138.346-.041.46-.423.702-.622a.667.667 0 0 1 .796-.035c.257.159.506.337.754.514.245.167.482.347.708.539a.563.563 0 0 1 .176.695zm-2.284-3.818a.315.315 0 0 1-.02-.081 2.234 2.234 0 0 0-.047-.318.923.923 0 0 0-.34-.535.936.936 0 0 0-.276-.133c-.125-.035-.257-.026-.381-.056a.236.236 0 0 1-.1-.42.246.246 0 0 1 .168-.051c.729.054 1.273.404 1.413 1.185.014.073.024.146.03.22.01.066.01.133 0 .199a.205.205 0 0 1-.169.159h-.035a.239.239 0 0 1-.243-.169zm-.232-1.971a2.862 2.862 0 0 0-.774-.237c-.117-.02-.235-.03-.353-.046a.224.224 0 0 1-.211-.252.222.222 0 0 1 .246-.218 3.23 3.23 0 0 1 1.341.35c.509.256.923.665 1.186 1.17.147.295.246.613.292.94.009.043.015.086.02.129.007.095.01.19.018.309v.044a.642.642 0 0 1-.019.14.234.234 0 0 1-.439.022.67.67 0 0 1-.024-.197 2.56 2.56 0 0 0-.206-1.034 2.33 2.33 0 0 0-1.077-1.12zm2.628 2.934c-.16 0-.237-.136-.248-.284-.021-.29-.037-.583-.077-.873a3.66 3.66 0 0 0-2.95-3.061c-.228-.04-.462-.05-.693-.075-.146-.014-.339-.024-.37-.207a.252.252 0 0 1 .246-.281h.17A4.222 4.222 0 0 1 17.5 10.5c.302.468.506.992.602 1.54.06.345.083.698.11 1.048a.245.245 0 0 1-.135.258.247.247 0 0 1-.1.026z" fill="#1F1F1F"/><path d="M14 0a14 14 0 1 0 0 28 14 14 0 0 0 0-28zm8.087 16.407v.02c-.408 1.652-2.25 3.423-3.941 3.792h-.02c-1.36.262-2.741.394-4.126.396-.404 0-.811-.013-1.215-.037l-1.868 1.943a.742.742 0 0 1-1.273-.514v-1.844a4.727 4.727 0 0 1-1.24-.574c-1.173-.746-2.191-1.986-2.484-3.163v-.019a16.155 16.155 0 0 1 0-6.95v-.021c.407-1.652 2.248-3.422 3.944-3.791h.019a21.907 21.907 0 0 1 8.244 0h.019c.913.198 1.87.806 2.62 1.59.637.66 1.133 1.448 1.32 2.207v.02a16.155 16.155 0 0 1 0 6.945z" fill="#1F1F1F"/></svg>