<svg width="29" height="28" viewBox="0 0 29 28" fill="none" xmlns="http://www.w3.org/2000/svg">
<g clip-path="url(#clip0_2472_28239)">
<path d="M14.5 0C11.7311 0 9.02431 0.821086 6.72202 2.35943C4.41973 3.89777 2.62532 6.08427 1.56569 8.64243C0.506066 11.2006 0.228819 14.0155 0.769012 16.7313C1.30921 19.447 2.64258 21.9416 4.60051 23.8995C6.55845 25.8574 9.05301 27.1908 11.7687 27.731C14.4845 28.2712 17.2994 27.9939 19.8576 26.9343C22.4157 25.8747 24.6022 24.0803 26.1406 21.778C27.6789 19.4757 28.5 16.7689 28.5 14C28.5 10.287 27.025 6.72601 24.3995 4.10051C21.774 1.475 18.213 0 14.5 0ZM22.5691 19.4791C22.1618 19.5364 20.17 19.4791 20.0666 19.4791C19.5517 19.4857 19.055 19.289 18.6841 18.9318C18.2641 18.5261 17.8886 18.0807 17.4782 17.6591C17.3574 17.5296 17.2259 17.4104 17.0852 17.3027C16.7575 17.0514 16.433 17.107 16.2786 17.4952C16.1582 17.913 16.0741 18.3404 16.0273 18.7727C16.0002 19.1641 15.7521 19.4091 15.313 19.4361C15.0409 19.4505 14.7689 19.4568 14.5 19.4489C13.5201 19.4435 12.5554 19.2052 11.6857 18.7536C10.7444 18.2296 9.92417 17.513 9.27864 16.6505C8.21751 15.295 7.36955 13.8059 6.61228 12.2707C6.57251 12.1927 5.79614 10.5414 5.77705 10.4634C5.70705 10.2041 5.77705 9.95432 5.99182 9.86682C6.12864 9.81432 8.68682 9.86682 8.72978 9.86682C8.9201 9.86553 9.1059 9.92478 9.26033 10.036C9.41476 10.1473 9.52982 10.3047 9.58887 10.4857C10.0622 11.6964 10.7096 12.8315 11.5107 13.8552C11.623 13.9915 11.7542 14.111 11.9005 14.21C12.1089 14.3532 12.3061 14.3039 12.3921 14.062C12.4939 13.7288 12.5538 13.384 12.5702 13.0359C12.5846 12.3455 12.5702 11.892 12.5321 11.2016C12.5066 10.7593 12.3507 10.3727 11.6984 10.247C11.498 10.2105 11.4805 10.045 11.6093 9.87955C11.8782 9.5375 12.2457 9.48182 12.6577 9.46114C13.2718 9.42614 13.8859 9.45 14.5 9.46114H14.6336C14.9009 9.46027 15.1675 9.48746 15.4291 9.54227C15.5838 9.57386 15.7243 9.65456 15.8295 9.77238C15.9347 9.89019 15.999 10.0388 16.013 10.1961C16.0445 10.3703 16.0579 10.5474 16.0527 10.7243C16.0368 11.4768 16.0002 12.2309 15.9923 12.9834C15.9849 13.282 16.0121 13.5804 16.0734 13.8727C16.1609 14.2736 16.4361 14.3739 16.7098 14.0843C17.0646 13.711 17.3896 13.3104 17.6818 12.8864C18.2001 12.1136 18.6272 11.2835 18.9546 10.4125C19.1327 9.96546 19.2727 9.86682 19.75 9.86682H22.4641C22.6255 9.86394 22.7864 9.88539 22.9414 9.93046C22.9962 9.94487 23.0475 9.97046 23.092 10.0056C23.1366 10.0408 23.1733 10.0848 23.2001 10.1348C23.2268 10.1848 23.2429 10.2398 23.2474 10.2964C23.2519 10.3529 23.2447 10.4098 23.2261 10.4634C23.0925 11.0584 22.7711 11.5659 22.4307 12.0543C21.8786 12.8355 21.2964 13.5975 20.7316 14.3691C20.6637 14.4689 20.6016 14.5725 20.5455 14.6793C20.3323 15.0643 20.3482 15.2791 20.6568 15.5973C21.15 16.1048 21.6766 16.5789 22.1523 17.1007C22.501 17.4805 22.8162 17.8898 23.0941 18.3241C23.433 18.8714 23.2182 19.3868 22.5691 19.4791Z" fill="#1F1F1F"/>
</g>
<defs>
<clipPath id="clip0_2472_28239">
<rect width="28" height="28" fill="white" transform="translate(0.5)"/>
</clipPath>
</defs>
</svg>
